<svg xmlns="http://www.w3.org/2000/svg" viewBox="0 0 32 32" width="32" height="32"><title>navigation menu</title><g class="nc-icon-wrapper" fill="#171717"><path d="M2.016 7.104v.768c0 1.216.96 2.208 2.176 2.208h23.616c1.216 0 2.176-.992 2.176-2.208v-.768c0-1.216-.96-2.208-2.176-2.208H4.192c-1.216 0-2.176.992-2.176 2.208zm2.176 11.488h23.616c1.216 0 2.176-.992 2.176-2.208v-.768c0-1.216-.96-2.208-2.176-2.208H4.192c-1.216 0-2.176.992-2.176 2.208v.768c0 1.216.96 2.208 2.176 2.208zm0 8.512h23.616c1.216 0 2.176-.96 2.176-2.176v-.8c0-1.216-.96-2.176-2.176-2.176H4.192c-1.216 0-2.176.96-2.176 2.176v.8c0 1.216.96 2.176 2.176 2.176z" fill="#171717"/></g></svg>