<svg xmlns="http://www.w3.org/2000/svg" viewBox="0 0 339.13 83.53"><defs><style>.cls-1{fill:#e6e6e6}.cls-2{fill:#fff}.cls-3{fill:#ccc}</style></defs><g id="Layer_2" data-name="Layer 2"><g id="Layer_1-2" data-name="Layer 1"><g id="Layer_2-2" data-name="Layer 2"><g id="OBJECTS"><path class="cls-1" d="M85.17 44.55V16h10.64a15.09 15.09 0 0 1 7.85 2 12.33 12.33 0 0 1 4.75 5.14 15.84 15.84 0 0 1 1.59 7.12 15.25 15.25 0 0 1-1.77 7.55 12.29 12.29 0 0 1-5 5 15 15 0 0 1-7.48 1.77Zm18.14-14.29a10.13 10.13 0 0 0-.88-4.4 6.81 6.81 0 0 0-2.57-3 7.48 7.48 0 0 0-4-1.06h-4.11v17h4.06a7.2 7.2 0 0 0 4.07-1.1 7 7 0 0 0 2.55-3.06 10.18 10.18 0 0 0 .88-4.38ZM136.12 38.77v5.78h-20V16h19.68v5.79h-13.13v5.54h11.24v5.34h-11.24v6.06ZM148.89 28.25v16.3h-6.59V16h5.22l13.21 16.79V16h6.59v28.55h-5.38ZM196.67 21.83H188v22.72h-6.58V21.83h-8.72V16h24ZM206.58 16h7.11l9.8 28.51h-6.75l-1.93-6.38h-9.39l-1.93 6.38h-6.74Zm6.86 17.59-3.32-11-3.32 11Z"/><path class="cls-2" d="M227.3 30.06a15.12 15.12 0 0 1 3.56-9.7 12.82 12.82 0 0 1 4.27-3.29 13.1 13.1 0 0 1 5.74-1.23 11.88 11.88 0 0 1 6.55 1.75 10.88 10.88 0 0 1 4.05 4.48l-2.85 1.84a8 8 0 0 0-2.15-2.91 7.87 7.87 0 0 0-2.81-1.5 10.13 10.13 0 0 0-2.95-.44 9 9 0 0 0-4.19 1 9.28 9.28 0 0 0-3.07 2.57 11.61 11.61 0 0 0-1.87 3.59 13.31 13.31 0 0 0-.62 4 12.55 12.55 0 0 0 .74 4.25 11.63 11.63 0 0 0 2.07 3.62 10.08 10.08 0 0 0 3.13 2.49 8.54 8.54 0 0 0 3.93.92 9.62 9.62 0 0 0 5.94-2.15 7.47 7.47 0 0 0 2.23-2.87l3 1.65a8.83 8.83 0 0 1-2.73 3.61 13.26 13.26 0 0 1-4.12 2.26 13.64 13.64 0 0 1-4.48.76 11.57 11.57 0 0 1-5.38-1.26 13.83 13.83 0 0 1-4.23-3.38 15.74 15.74 0 0 1-2.77-4.73 15.17 15.17 0 0 1-.99-5.33ZM270.47 44.75a12.56 12.56 0 0 1-5.75-1.18 10 10 0 0 1-3.72-3.21 14 14 0 0 1-2.05-4.6 22 22 0 0 1-.64-5.3V16h3.61v14.46a19.87 19.87 0 0 0 .42 4.07 11.38 11.38 0 0 0 1.39 3.56 7.09 7.09 0 0 0 2.61 2.49 8.36 8.36 0 0 0 4.1.92 8.12 8.12 0 0 0 4.13-.94 7 7 0 0 0 2.6-2.56 11.38 11.38 0 0 0 1.39-3.56 19.13 19.13 0 0 0 .42-4V16h3.61v14.46a22 22 0 0 1-.66 5.48 13.09 13.09 0 0 1-2.11 4.56 10.1 10.1 0 0 1-3.75 3.11 12.42 12.42 0 0 1-5.6 1.14ZM291.18 44.55V16h12.21a7.62 7.62 0 0 1 3.45.79 8.85 8.85 0 0 1 2.73 2.08 9.61 9.61 0 0 1 1.81 2.94 8.74 8.74 0 0 1 .64 3.31 9.37 9.37 0 0 1-.74 3.73 8.47 8.47 0 0 1-2.09 3 7.26 7.26 0 0 1-3.19 1.78l7 10.92h-4.1l-6.5-10.24h-7.6v10.24Zm3.62-13.45h8.63a4.23 4.23 0 0 0 2.59-.82 5.45 5.45 0 0 0 1.73-2.19 6.89 6.89 0 0 0 .62-2.93 6.16 6.16 0 0 0-2.61-5.1 4.52 4.52 0 0 0-2.57-.8h-8.39ZM339.08 41.34v3.21h-19.35V16h19v3.22h-15.39v9.23h13.38v3h-13.38v9.84Z"/><path class="cls-3" d="M94.78 59.56h-4.1V70.1h-1.14V59.56h-4.1v-1h9.34ZM103.36 70.19a4.94 4.94 0 0 1-2.2-.49 5.38 5.38 0 0 1-1.71-1.33 6.5 6.5 0 0 1-1.1-1.89 6.14 6.14 0 0 1 1.16-6.23 5.79 5.79 0 0 1 1.73-1.3 5 5 0 0 1 2.14-.48 4.77 4.77 0 0 1 2.2.51 5.22 5.22 0 0 1 1.7 1.35 6.33 6.33 0 0 1 1.09 1.88 6.07 6.07 0 0 1-1.15 6.21 5.19 5.19 0 0 1-1.72 1.29 4.79 4.79 0 0 1-2.14.48Zm-4.26-5.86a5.54 5.54 0 0 0 .3 1.81 5.06 5.06 0 0 0 .88 1.55 4.35 4.35 0 0 0 1.35 1.07 3.72 3.72 0 0 0 1.73.4 3.78 3.78 0 0 0 1.78-.41 4.11 4.11 0 0 0 1.34-1.11 4.61 4.61 0 0 0 .85-1.55 5.25 5.25 0 0 0 .3-1.76 5.34 5.34 0 0 0-.31-1.81 5 5 0 0 0-.89-1.54 4.16 4.16 0 0 0-1.35-1.08 4 4 0 0 0-3.48 0 4.32 4.32 0 0 0-1.34 1.1 5.35 5.35 0 0 0-.86 1.55 5.41 5.41 0 0 0-.3 1.78ZM121.3 59.56h-4.11V70.1h-1.13V59.56H112v-1h9.34ZM128.11 58.55h.95l4.79 11.55h-1.2l-1.44-3.61H126l-1.44 3.61h-1.22Zm2.74 7-2.27-5.71-2.28 5.76ZM138.13 70.1V58.55h1.13V69.1h6.65v1ZM156.5 70.1V58.55h3.91a5.64 5.64 0 0 1 3.06.78 4.87 4.87 0 0 1 1.84 2.08 6.6 6.6 0 0 1 .61 2.9 6.48 6.48 0 0 1-.67 3.06 4.78 4.78 0 0 1-1.91 2 5.63 5.63 0 0 1-2.93.71Zm8.29-5.79a5.48 5.48 0 0 0-.51-2.45 4 4 0 0 0-1.49-1.69 4.5 4.5 0 0 0-2.38-.61h-2.77v9.54h2.77a4.23 4.23 0 0 0 2.4-.64 3.92 3.92 0 0 0 1.48-1.72 5.63 5.63 0 0 0 .5-2.43ZM178.46 69.1v1h-7.74V58.55h7.59v1h-6.45v4.17h5.63v1h-5.63v4.38ZM184.36 60.65v9.45h-1.13V58.55h.94l7.55 9.63v-9.61h1.14V70.1h-1.05ZM206.55 59.56h-4.11V70.1h-1.13V59.56h-4.1v-1h9.34ZM213.36 58.55h.95l4.79 11.55h-1.2l-1.44-3.61h-5.26l-1.44 3.61h-1.22Zm2.74 7-2.27-5.71-2.28 5.71ZM223.38 70.1V58.55h1.14V69.1h6.64v1ZM248.48 60.72a3 3 0 0 0-.56-.5 3.89 3.89 0 0 0-.73-.38 5.13 5.13 0 0 0-.87-.26 4.71 4.71 0 0 0-1-.1 3.51 3.51 0 0 0-2.22.58 1.89 1.89 0 0 0-.7 1.56 1.67 1.67 0 0 0 .33 1.08 2.32 2.32 0 0 0 1.05.63c.47.16 1.08.33 1.81.5a14.07 14.07 0 0 1 2.13.62 3.37 3.37 0 0 1 1.38 1 2.51 2.51 0 0 1 .48 1.65 2.74 2.74 0 0 1-.31 1.38 2.52 2.52 0 0 1-.86 1 3.68 3.68 0 0 1-1.31.58 7.13 7.13 0 0 1-1.67.19 7.66 7.66 0 0 1-1.71-.19 7.35 7.35 0 0 1-1.55-.55 6 6 0 0 1-1.36-.94l.57-.93a4.22 4.22 0 0 0 .73.61 6.79 6.79 0 0 0 1 .52 5.15 5.15 0 0 0 1.14.34 5.26 5.26 0 0 0 1.25.13 3.77 3.77 0 0 0 2.15-.51 1.84 1.84 0 0 0 .47-2.57.61.61 0 0 0-.12-.16 2.87 2.87 0 0 0-1.16-.7 15.59 15.59 0 0 0-1.92-.54 12.85 12.85 0 0 1-2-.62 2.72 2.72 0 0 1-1.24-.9 2.48 2.48 0 0 1-.41-1.48 3.12 3.12 0 0 1 .53-1.82 3.34 3.34 0 0 1 1.45-1.12 5.72 5.72 0 0 1 2.12-.38 6.12 6.12 0 0 1 1.42.16 5.54 5.54 0 0 1 1.21.4 4.89 4.89 0 0 1 1 .74ZM258.86 70.19a4.94 4.94 0 0 1-2.2-.49 5.48 5.48 0 0 1-1.66-1.33 6.5 6.5 0 0 1-1.1-1.89 6.15 6.15 0 0 1 1.1-6.23 5.79 5.79 0 0 1 1.73-1.3 5 5 0 0 1 2.14-.48 4.77 4.77 0 0 1 2.2.51 5.22 5.22 0 0 1 1.7 1.35 6.33 6.33 0 0 1 1.09 1.88 6.07 6.07 0 0 1-1.15 6.21 5.19 5.19 0 0 1-1.71 1.29 4.79 4.79 0 0 1-2.14.48Zm-4.26-5.86a5.54 5.54 0 0 0 .3 1.81 5.06 5.06 0 0 0 .88 1.55 4.35 4.35 0 0 0 1.35 1.07 3.72 3.72 0 0 0 1.73.4 3.78 3.78 0 0 0 1.78-.41 4.18 4.18 0 0 0 1.36-1.11 4.61 4.61 0 0 0 .85-1.55 5.25 5.25 0 0 0 .3-1.76 5.34 5.34 0 0 0-.31-1.81A5 5 0 0 0 262 61a4.16 4.16 0 0 0-1.35-1.08 4 4 0 0 0-3.48 0 4.32 4.32 0 0 0-1.34 1.1 5.35 5.35 0 0 0-.86 1.55 5.71 5.71 0 0 0-.32 1.78ZM269 70.1V58.55h1.13V69.1h6.65v1ZM285.29 70.19a5 5 0 0 1-2.3-.49 3.92 3.92 0 0 1-1.49-1.31 5.55 5.55 0 0 1-.8-1.87 9.07 9.07 0 0 1-.25-2.14v-5.83h1.12v5.83a8.52 8.52 0 0 0 .18 1.75 5.33 5.33 0 0 0 .61 1.55 3 3 0 0 0 1.13 1.08 3.51 3.51 0 0 0 1.79.4 3.69 3.69 0 0 0 1.82-.41 3.08 3.08 0 0 0 1.14-1.1 5.06 5.06 0 0 0 .59-1.54 8.4 8.4 0 0 0 .18-1.73v-5.83h1.13v5.83a8.62 8.62 0 0 1-.26 2.21 5 5 0 0 1-.83 1.85 3.93 3.93 0 0 1-1.5 1.27 4.77 4.77 0 0 1-2.26.48ZM303.65 59.56h-4.1V70.1h-1.14V59.56h-4.1v-1h9.34ZM308 70.1V58.55h1.13V70.1ZM319.28 70.19a4.94 4.94 0 0 1-2.2-.49 5.23 5.23 0 0 1-1.7-1.33 6.31 6.31 0 0 1-1.11-1.89 6.14 6.14 0 0 1 1.16-6.23 5.79 5.79 0 0 1 1.73-1.3 5 5 0 0 1 2.14-.48 4.81 4.81 0 0 1 2.21.51 5.28 5.28 0 0 1 1.69 1.35 6.33 6.33 0 0 1 1.09 1.88 6.07 6.07 0 0 1-1.15 6.21 5 5 0 0 1-1.72 1.29 4.66 4.66 0 0 1-2.14.48ZM315 64.33a5.3 5.3 0 0 0 .31 1.81 4.84 4.84 0 0 0 .87 1.55 4.14 4.14 0 0 0 1.36 1.07 3.71 3.71 0 0 0 1.72.4 3.78 3.78 0 0 0 1.78-.41 4.39 4.39 0 0 0 1.35-1.11 5.1 5.1 0 0 0 .85-1.55 5.5 5.5 0 0 0 .29-1.76 5.11 5.11 0 0 0-.31-1.81 4.74 4.74 0 0 0-.88-1.54A4.4 4.4 0 0 0 321 59.9a3.9 3.9 0 0 0-1.72-.39 4 4 0 0 0-1.76.41 4.32 4.32 0 0 0-1.34 1.1 5.48 5.48 0 0 0-.86 1.55 5.58 5.58 0 0 0-.32 1.76ZM330.59 60.65v9.45h-1.14V58.55h.94l7.61 9.63v-9.61h1.13V70.1H338Z"/><path class="cls-1" d="M31.37 56a5.83 5.83 0 0 1-1.37-.83C11.38 40.13 2.83 23.9 7.12 11.77A15.12 15.12 0 0 1 21.69 1.49a19.33 19.33 0 0 1 6.85 1.34A18.66 18.66 0 0 0 0 18.66s-.34 12.15 5.61 29.18a100.44 100.44 0 0 1 4.07 15.71 54.57 54.57 0 0 0 5.91 17C18.68 86 27 83.36 26.45 77.12L25.3 64.84a8.55 8.55 0 0 1 .9-4.63A8.22 8.22 0 0 1 31.37 56ZM67.33 18.66A18.66 18.66 0 0 0 38.79 2.83a19.42 19.42 0 0 1 6.86-1.34 15.09 15.09 0 0 1 14.56 10.28C64.5 23.9 56 40.13 37.34 55.17A5.27 5.27 0 0 1 36 56a8.22 8.22 0 0 1 6 8.84l-1.12 12.28c-.58 6.24 7.77 8.91 10.86 3.46a53.72 53.72 0 0 0 5.91-17 102.7 102.7 0 0 1 4.07-15.71c5.95-17.06 5.61-29.21 5.61-29.21Z"/><path class="cls-2" d="M33.67 13.15c-17.14-17.13-38.93 6 0 37.48C72.59 19.16 50.8-4 33.67 13.15Z"/></g></g></g></g></svg>